<svg xmlns="http://www.w3.org/2000/svg" viewBox="0 0 1920 1080"><defs><style>.cls-1{fill:#f07b3f;}.cls-2{fill:#ffd460;}.cls-3{fill:#ea5455;}.cls-4{fill:#2d4059;}</style></defs><title>SplashBanner</title><g id="Layer_2" data-name="Layer 2"><g id="Layer_1-2" data-name="Layer 1"><polygon class="cls-1" points="0 0 1920 0 126 1080 0 1080 0 0"/><polygon class="cls-2" points="1920 1080 1920 4 53 1080 1920 1080"/><polygon class="cls-3" points="0 0 0 1080 1920 0 0 0"/><path class="cls-4" d="M1920,0V1080H0S45,932,101,930s118,64,229,10S431,751,495,704s256,54,339-27,92-211,181-239,214,47,312-1,45-180,143-231,174-6,244-38,15-97,91-126,77-10,96-22S1920,0,1920,0Z"/></g></g></svg>